<mxfile host="app.diagrams.net" agent="Mozilla/5.0 (Windows NT 10.0; Win64; x64; rv:138.0) Gecko/20100101 Firefox/138.0" version="27.0.8">
  <diagram name="PÃ¡gina-1" id="RibSf23np1vOqyg8qmN7">
    <mxGraphModel dx="679" dy="722" grid="1" gridSize="10" guides="1" tooltips="1" connect="1" arrows="1" fold="1" page="1" pageScale="1" pageWidth="827" pageHeight="1169" math="0" shadow="0">
      <root>
        <mxCell id="0" />
        <mxCell id="1" parent="0" />
        <mxCell id="wdcKyTHdO8q3gPyHCcQ0-82" value="" style="rounded=0;whiteSpace=wrap;html=1;" vertex="1" parent="1">
          <mxGeometry x="138" y="90" width="550" height="360" as="geometry" />
        </mxCell>
        <mxCell id="wdcKyTHdO8q3gPyHCcQ0-83" value="Actor" style="shape=umlActor;verticalLabelPosition=bottom;verticalAlign=top;html=1;outlineConnect=0;" vertex="1" parent="1">
          <mxGeometry x="30" y="220" width="30" height="60" as="geometry" />
        </mxCell>
        <mxCell id="wdcKyTHdO8q3gPyHCcQ0-90" style="edgeStyle=orthogonalEdgeStyle;rounded=0;orthogonalLoop=1;jettySize=auto;html=1;exitX=0.5;exitY=1;exitDx=0;exitDy=0;entryX=0.5;entryY=0;entryDx=0;entryDy=0;" edge="1" parent="1" source="wdcKyTHdO8q3gPyHCcQ0-85" target="wdcKyTHdO8q3gPyHCcQ0-88">
          <mxGeometry relative="1" as="geometry" />
        </mxCell>
        <mxCell id="wdcKyTHdO8q3gPyHCcQ0-85" value="&lt;font style=&quot;font-size: 8px;&quot;&gt;Introducir tarjeta&lt;/font&gt;" style="ellipse;whiteSpace=wrap;html=1;" vertex="1" parent="1">
          <mxGeometry x="199.5" y="130" width="70" height="30" as="geometry" />
        </mxCell>
        <mxCell id="wdcKyTHdO8q3gPyHCcQ0-87" value="" style="endArrow=none;html=1;rounded=0;entryX=0;entryY=0.5;entryDx=0;entryDy=0;exitX=1;exitY=0.3333333333333333;exitDx=0;exitDy=0;exitPerimeter=0;" edge="1" parent="1" source="wdcKyTHdO8q3gPyHCcQ0-83" target="wdcKyTHdO8q3gPyHCcQ0-85">
          <mxGeometry width="50" height="50" relative="1" as="geometry">
            <mxPoint x="220" y="280" as="sourcePoint" />
            <mxPoint x="270" y="230" as="targetPoint" />
          </mxGeometry>
        </mxCell>
        <mxCell id="wdcKyTHdO8q3gPyHCcQ0-94" style="rounded=0;orthogonalLoop=1;jettySize=auto;html=1;" edge="1" parent="1" source="wdcKyTHdO8q3gPyHCcQ0-88" target="wdcKyTHdO8q3gPyHCcQ0-92">
          <mxGeometry relative="1" as="geometry" />
        </mxCell>
        <mxCell id="wdcKyTHdO8q3gPyHCcQ0-95" value="&lt;font style=&quot;font-size: 8px;&quot;&gt;&amp;lt;&amp;lt;extends&amp;gt;&amp;gt;&lt;/font&gt;" style="edgeLabel;html=1;align=center;verticalAlign=middle;resizable=0;points=[];" vertex="1" connectable="0" parent="wdcKyTHdO8q3gPyHCcQ0-94">
          <mxGeometry x="0.0037" y="-1" relative="1" as="geometry">
            <mxPoint as="offset" />
          </mxGeometry>
        </mxCell>
        <mxCell id="wdcKyTHdO8q3gPyHCcQ0-97" style="edgeStyle=orthogonalEdgeStyle;rounded=0;orthogonalLoop=1;jettySize=auto;html=1;entryX=0.5;entryY=0;entryDx=0;entryDy=0;" edge="1" parent="1" source="wdcKyTHdO8q3gPyHCcQ0-88" target="wdcKyTHdO8q3gPyHCcQ0-96">
          <mxGeometry relative="1" as="geometry" />
        </mxCell>
        <mxCell id="wdcKyTHdO8q3gPyHCcQ0-98" value="&lt;font style=&quot;font-size: 8px;&quot;&gt;&amp;lt;&amp;lt;extends&amp;gt;&amp;gt;&lt;/font&gt;" style="edgeLabel;html=1;align=center;verticalAlign=middle;resizable=0;points=[];" vertex="1" connectable="0" parent="wdcKyTHdO8q3gPyHCcQ0-97">
          <mxGeometry x="-0.2766" relative="1" as="geometry">
            <mxPoint as="offset" />
          </mxGeometry>
        </mxCell>
        <mxCell id="wdcKyTHdO8q3gPyHCcQ0-88" value="&lt;font style=&quot;font-size: 8px;&quot;&gt;Validar tarjeta&lt;/font&gt;" style="ellipse;whiteSpace=wrap;html=1;" vertex="1" parent="1">
          <mxGeometry x="197" y="220" width="75" height="20" as="geometry" />
        </mxCell>
        <mxCell id="wdcKyTHdO8q3gPyHCcQ0-92" value="&lt;font style=&quot;font-size: 8px;&quot;&gt;Rechazar tarjeta&lt;/font&gt;" style="ellipse;whiteSpace=wrap;html=1;" vertex="1" parent="1">
          <mxGeometry x="289.5" y="160" width="70" height="20" as="geometry" />
        </mxCell>
        <mxCell id="wdcKyTHdO8q3gPyHCcQ0-103" value="" style="edgeStyle=orthogonalEdgeStyle;rounded=0;orthogonalLoop=1;jettySize=auto;html=1;" edge="1" parent="1" source="wdcKyTHdO8q3gPyHCcQ0-96" target="wdcKyTHdO8q3gPyHCcQ0-101">
          <mxGeometry relative="1" as="geometry" />
        </mxCell>
        <mxCell id="wdcKyTHdO8q3gPyHCcQ0-96" value="&lt;font style=&quot;font-size: 8px;&quot;&gt;Aceptar tarjeta&lt;/font&gt;" style="ellipse;whiteSpace=wrap;html=1;" vertex="1" parent="1">
          <mxGeometry x="199.5" y="290" width="70" height="20" as="geometry" />
        </mxCell>
        <mxCell id="wdcKyTHdO8q3gPyHCcQ0-106" style="rounded=0;orthogonalLoop=1;jettySize=auto;html=1;entryX=0.5;entryY=0;entryDx=0;entryDy=0;" edge="1" parent="1" source="wdcKyTHdO8q3gPyHCcQ0-101" target="wdcKyTHdO8q3gPyHCcQ0-104">
          <mxGeometry relative="1" as="geometry" />
        </mxCell>
        <mxCell id="wdcKyTHdO8q3gPyHCcQ0-114" value="&lt;font style=&quot;font-size: 8px;&quot;&gt;&amp;lt;&amp;lt;extends&amp;gt;&amp;gt;&lt;/font&gt;" style="edgeLabel;html=1;align=center;verticalAlign=middle;resizable=0;points=[];" vertex="1" connectable="0" parent="wdcKyTHdO8q3gPyHCcQ0-106">
          <mxGeometry x="-0.2012" y="1" relative="1" as="geometry">
            <mxPoint as="offset" />
          </mxGeometry>
        </mxCell>
        <mxCell id="wdcKyTHdO8q3gPyHCcQ0-109" style="edgeStyle=orthogonalEdgeStyle;rounded=0;orthogonalLoop=1;jettySize=auto;html=1;entryX=0;entryY=0.5;entryDx=0;entryDy=0;" edge="1" parent="1" source="wdcKyTHdO8q3gPyHCcQ0-101" target="wdcKyTHdO8q3gPyHCcQ0-108">
          <mxGeometry relative="1" as="geometry" />
        </mxCell>
        <mxCell id="wdcKyTHdO8q3gPyHCcQ0-115" value="&lt;font style=&quot;font-size: 8px;&quot;&gt;&amp;lt;&amp;lt;extends&amp;gt;&amp;gt;&lt;/font&gt;" style="edgeLabel;html=1;align=center;verticalAlign=middle;resizable=0;points=[];" vertex="1" connectable="0" parent="wdcKyTHdO8q3gPyHCcQ0-109">
          <mxGeometry x="-0.2868" y="-1" relative="1" as="geometry">
            <mxPoint x="2" y="-1" as="offset" />
          </mxGeometry>
        </mxCell>
        <mxCell id="wdcKyTHdO8q3gPyHCcQ0-101" value="&lt;font style=&quot;font-size: 8px;&quot;&gt;Validar clave&lt;/font&gt;" style="ellipse;whiteSpace=wrap;html=1;" vertex="1" parent="1">
          <mxGeometry x="199.5" y="330" width="70" height="20" as="geometry" />
        </mxCell>
        <mxCell id="wdcKyTHdO8q3gPyHCcQ0-104" value="&lt;font style=&quot;font-size: 8px;&quot;&gt;Incorrecta&lt;/font&gt;" style="ellipse;whiteSpace=wrap;html=1;" vertex="1" parent="1">
          <mxGeometry x="199.5" y="390" width="70" height="20" as="geometry" />
        </mxCell>
        <mxCell id="wdcKyTHdO8q3gPyHCcQ0-119" value="" style="edgeStyle=orthogonalEdgeStyle;rounded=0;orthogonalLoop=1;jettySize=auto;html=1;" edge="1" parent="1" source="wdcKyTHdO8q3gPyHCcQ0-108" target="wdcKyTHdO8q3gPyHCcQ0-118">
          <mxGeometry relative="1" as="geometry" />
        </mxCell>
        <mxCell id="wdcKyTHdO8q3gPyHCcQ0-135" value="&lt;font style=&quot;font-size: 8px;&quot;&gt;&amp;lt;&amp;lt;include&amp;gt;&amp;gt;&lt;/font&gt;" style="edgeLabel;html=1;align=center;verticalAlign=middle;resizable=0;points=[];" vertex="1" connectable="0" parent="wdcKyTHdO8q3gPyHCcQ0-119">
          <mxGeometry x="-0.2845" y="-1" relative="1" as="geometry">
            <mxPoint x="5" y="-1" as="offset" />
          </mxGeometry>
        </mxCell>
        <mxCell id="wdcKyTHdO8q3gPyHCcQ0-108" value="&lt;font style=&quot;font-size: 8px;&quot;&gt;Correcta&lt;/font&gt;" style="ellipse;whiteSpace=wrap;html=1;" vertex="1" parent="1">
          <mxGeometry x="309.5" y="280" width="70" height="20" as="geometry" />
        </mxCell>
        <mxCell id="wdcKyTHdO8q3gPyHCcQ0-121" value="" style="edgeStyle=orthogonalEdgeStyle;rounded=0;orthogonalLoop=1;jettySize=auto;html=1;" edge="1" parent="1" source="wdcKyTHdO8q3gPyHCcQ0-118" target="wdcKyTHdO8q3gPyHCcQ0-120">
          <mxGeometry relative="1" as="geometry" />
        </mxCell>
        <mxCell id="wdcKyTHdO8q3gPyHCcQ0-124" value="&lt;font style=&quot;font-size: 8px;&quot;&gt;&amp;lt;&amp;lt;extends&amp;gt;&amp;gt;&lt;/font&gt;" style="edgeLabel;html=1;align=center;verticalAlign=middle;resizable=0;points=[];" vertex="1" connectable="0" parent="wdcKyTHdO8q3gPyHCcQ0-121">
          <mxGeometry x="-0.0147" relative="1" as="geometry">
            <mxPoint as="offset" />
          </mxGeometry>
        </mxCell>
        <mxCell id="wdcKyTHdO8q3gPyHCcQ0-123" value="" style="edgeStyle=orthogonalEdgeStyle;rounded=0;orthogonalLoop=1;jettySize=auto;html=1;" edge="1" parent="1" source="wdcKyTHdO8q3gPyHCcQ0-118" target="wdcKyTHdO8q3gPyHCcQ0-122">
          <mxGeometry relative="1" as="geometry" />
        </mxCell>
        <mxCell id="wdcKyTHdO8q3gPyHCcQ0-125" value="&lt;font style=&quot;font-size: 8px;&quot;&gt;&amp;lt;&amp;lt;extends&amp;gt;&amp;gt;&lt;/font&gt;" style="edgeLabel;html=1;align=center;verticalAlign=middle;resizable=0;points=[];" vertex="1" connectable="0" parent="wdcKyTHdO8q3gPyHCcQ0-123">
          <mxGeometry x="-0.3431" y="-1" relative="1" as="geometry">
            <mxPoint x="14" y="-1" as="offset" />
          </mxGeometry>
        </mxCell>
        <mxCell id="wdcKyTHdO8q3gPyHCcQ0-127" style="edgeStyle=orthogonalEdgeStyle;rounded=0;orthogonalLoop=1;jettySize=auto;html=1;" edge="1" parent="1" source="wdcKyTHdO8q3gPyHCcQ0-118" target="wdcKyTHdO8q3gPyHCcQ0-126">
          <mxGeometry relative="1" as="geometry" />
        </mxCell>
        <mxCell id="wdcKyTHdO8q3gPyHCcQ0-128" value="&lt;font style=&quot;font-size: 8px;&quot;&gt;&amp;lt;&amp;lt;extends&amp;gt;&amp;gt;&lt;/font&gt;" style="edgeLabel;html=1;align=center;verticalAlign=middle;resizable=0;points=[];" vertex="1" connectable="0" parent="wdcKyTHdO8q3gPyHCcQ0-127">
          <mxGeometry x="-0.1766" y="-1" relative="1" as="geometry">
            <mxPoint as="offset" />
          </mxGeometry>
        </mxCell>
        <mxCell id="wdcKyTHdO8q3gPyHCcQ0-132" style="rounded=0;orthogonalLoop=1;jettySize=auto;html=1;entryX=0;entryY=0.5;entryDx=0;entryDy=0;" edge="1" parent="1" source="wdcKyTHdO8q3gPyHCcQ0-118" target="wdcKyTHdO8q3gPyHCcQ0-131">
          <mxGeometry relative="1" as="geometry" />
        </mxCell>
        <mxCell id="wdcKyTHdO8q3gPyHCcQ0-133" value="&lt;font style=&quot;font-size: 8px;&quot;&gt;&amp;lt;&amp;lt;extends&amp;gt;&amp;gt;&lt;/font&gt;" style="edgeLabel;html=1;align=center;verticalAlign=middle;resizable=0;points=[];" vertex="1" connectable="0" parent="wdcKyTHdO8q3gPyHCcQ0-132">
          <mxGeometry x="-0.1015" relative="1" as="geometry">
            <mxPoint as="offset" />
          </mxGeometry>
        </mxCell>
        <mxCell id="wdcKyTHdO8q3gPyHCcQ0-118" value="&lt;div&gt;&lt;font style=&quot;font-size: 8px;&quot;&gt;Realizar operaciÃ³n&lt;/font&gt;&lt;/div&gt;" style="ellipse;whiteSpace=wrap;html=1;" vertex="1" parent="1">
          <mxGeometry x="478.14" y="270" width="56" height="40" as="geometry" />
        </mxCell>
        <mxCell id="wdcKyTHdO8q3gPyHCcQ0-120" value="&lt;div&gt;&lt;font style=&quot;font-size: 8px;&quot;&gt;Retirar efectivo&lt;/font&gt;&lt;/div&gt;" style="ellipse;whiteSpace=wrap;html=1;" vertex="1" parent="1">
          <mxGeometry x="471.14" y="150" width="70" height="40" as="geometry" />
        </mxCell>
        <mxCell id="wdcKyTHdO8q3gPyHCcQ0-122" value="&lt;font style=&quot;font-size: 8px;&quot;&gt;Depositar dinero&lt;/font&gt;" style="ellipse;whiteSpace=wrap;html=1;" vertex="1" parent="1">
          <mxGeometry x="614.14" y="270" width="70" height="40" as="geometry" />
        </mxCell>
        <mxCell id="wdcKyTHdO8q3gPyHCcQ0-126" value="&lt;div&gt;&lt;font style=&quot;font-size: 8px;&quot;&gt;Hacer transferencias&lt;/font&gt;&lt;/div&gt;" style="ellipse;whiteSpace=wrap;html=1;" vertex="1" parent="1">
          <mxGeometry x="471.14" y="380" width="70" height="40" as="geometry" />
        </mxCell>
        <mxCell id="wdcKyTHdO8q3gPyHCcQ0-131" value="&lt;font style=&quot;font-size: 8px;&quot;&gt;Consultar informaciÃ³n&lt;/font&gt;" style="ellipse;whiteSpace=wrap;html=1;" vertex="1" parent="1">
          <mxGeometry x="584.14" y="200" width="70" height="40" as="geometry" />
        </mxCell>
      </root>
    </mxGraphModel>
  </diagram>
</mxfile>
